<mxfile host="Electron" modified="2024-06-04T00:03:28.335Z" agent="Mozilla/5.0 (Windows NT 10.0; Win64; x64) AppleWebKit/537.36 (KHTML, like Gecko) draw.io/24.4.13 Chrome/124.0.6367.207 Electron/30.0.6 Safari/537.36" etag="EvgUKnS9rvl81FnqoeH2" version="24.4.13" type="device">
  <diagram name="Страница — 1" id="dTteS-4OwLXb-SsmI-YE">
    <mxGraphModel dx="757" dy="537" grid="1" gridSize="10" guides="1" tooltips="1" connect="1" arrows="1" fold="1" page="1" pageScale="1" pageWidth="827" pageHeight="1169" math="0" shadow="0">
      <root>
        <mxCell id="0" />
        <mxCell id="1" parent="0" />
        <mxCell id="9MHZOHHS-NlQLNRWX2LN-1" value="Начало" style="rounded=1;whiteSpace=wrap;html=1;arcSize=50;" parent="1" vertex="1">
          <mxGeometry x="354" y="20" width="120" height="20" as="geometry" />
        </mxCell>
        <mxCell id="9MHZOHHS-NlQLNRWX2LN-2" value="" style="endArrow=none;dashed=1;html=1;rounded=0;exitX=0;exitY=0.5;exitDx=0;exitDy=0;entryX=1;entryY=0.5;entryDx=0;entryDy=0;exitPerimeter=0;" parent="1" source="9MHZOHHS-NlQLNRWX2LN-3" target="9MHZOHHS-NlQLNRWX2LN-1" edge="1">
          <mxGeometry width="50" height="50" relative="1" as="geometry">
            <mxPoint x="500" y="135" as="sourcePoint" />
            <mxPoint x="480" y="135" as="targetPoint" />
          </mxGeometry>
        </mxCell>
        <mxCell id="9MHZOHHS-NlQLNRWX2LN-3" value="    Входные данные:&#xa;     int length, DataGridView Table" style="strokeWidth=2;shape=mxgraph.flowchart.annotation_1;align=left;pointerEvents=1;recursiveResize=1;autosize=0;verticalAlign=middle;horizontal=1;" parent="1" vertex="1">
          <mxGeometry x="500" y="7.5" width="50" height="45" as="geometry" />
        </mxCell>
        <mxCell id="9MHZOHHS-NlQLNRWX2LN-4" value="" style="endArrow=none;html=1;rounded=0;entryX=0.5;entryY=0;entryDx=0;entryDy=0;exitX=0.5;exitY=1;exitDx=0;exitDy=0;" parent="1" source="9MHZOHHS-NlQLNRWX2LN-1" target="9MHZOHHS-NlQLNRWX2LN-5" edge="1">
          <mxGeometry width="50" height="50" relative="1" as="geometry">
            <mxPoint x="459.9999999999999" y="100" as="sourcePoint" />
            <mxPoint x="375.9999999999999" y="100" as="targetPoint" />
          </mxGeometry>
        </mxCell>
        <mxCell id="9MHZOHHS-NlQLNRWX2LN-5" value="length += 1" style="rounded=0;whiteSpace=wrap;html=1;" parent="1" vertex="1">
          <mxGeometry x="359" y="50" width="110" height="20" as="geometry" />
        </mxCell>
        <mxCell id="9MHZOHHS-NlQLNRWX2LN-7" value="" style="endArrow=none;html=1;rounded=0;entryX=0.5;entryY=0;entryDx=0;entryDy=0;exitX=0.5;exitY=1;exitDx=0;exitDy=0;" parent="1" source="9MHZOHHS-NlQLNRWX2LN-5" target="9MHZOHHS-NlQLNRWX2LN-8" edge="1">
          <mxGeometry width="50" height="50" relative="1" as="geometry">
            <mxPoint x="459.9999999999999" y="100" as="sourcePoint" />
            <mxPoint x="375.9999999999999" y="100" as="targetPoint" />
          </mxGeometry>
        </mxCell>
        <mxCell id="9MHZOHHS-NlQLNRWX2LN-8" value="&lt;div&gt;Table.ColumnCount = length&lt;/div&gt;" style="rounded=0;whiteSpace=wrap;html=1;" parent="1" vertex="1">
          <mxGeometry x="336" y="80" width="156" height="20" as="geometry" />
        </mxCell>
        <mxCell id="9MHZOHHS-NlQLNRWX2LN-13" value="" style="endArrow=none;html=1;rounded=0;entryX=0.5;entryY=0;entryDx=0;entryDy=0;exitX=0.5;exitY=1;exitDx=0;exitDy=0;" parent="1" source="9MHZOHHS-NlQLNRWX2LN-8" target="9MHZOHHS-NlQLNRWX2LN-14" edge="1">
          <mxGeometry width="50" height="50" relative="1" as="geometry">
            <mxPoint x="509.9999999999999" y="160" as="sourcePoint" />
            <mxPoint x="425.9999999999999" y="160" as="targetPoint" />
          </mxGeometry>
        </mxCell>
        <mxCell id="9MHZOHHS-NlQLNRWX2LN-14" value="&lt;div&gt;&lt;span style=&quot;background-color: initial;&quot;&gt;Table.RowCount = length;&lt;/span&gt;&lt;br&gt;&lt;/div&gt;" style="rounded=0;whiteSpace=wrap;html=1;" parent="1" vertex="1">
          <mxGeometry x="336" y="110" width="156" height="20" as="geometry" />
        </mxCell>
        <mxCell id="9MHZOHHS-NlQLNRWX2LN-15" value="" style="endArrow=none;html=1;rounded=0;entryX=0.5;entryY=1;entryDx=0;entryDy=0;exitX=0.5;exitY=0;exitDx=0;exitDy=0;" parent="1" source="9MHZOHHS-NlQLNRWX2LN-16" target="9MHZOHHS-NlQLNRWX2LN-14" edge="1">
          <mxGeometry width="50" height="50" relative="1" as="geometry">
            <mxPoint x="509.9999999999999" y="240" as="sourcePoint" />
            <mxPoint x="505.9999999999999" y="230" as="targetPoint" />
          </mxGeometry>
        </mxCell>
        <mxCell id="9MHZOHHS-NlQLNRWX2LN-16" value="Table.Rows[0].Cells[0].Value = $&quot;[{length - 1}][{length - 1}]&quot;" style="rounded=0;whiteSpace=wrap;html=1;" parent="1" vertex="1">
          <mxGeometry x="329" y="140" width="170" height="30" as="geometry" />
        </mxCell>
        <mxCell id="9MHZOHHS-NlQLNRWX2LN-17" value="" style="endArrow=none;html=1;rounded=0;exitX=0.5;exitY=0;exitDx=0;exitDy=0;exitPerimeter=0;entryX=0.5;entryY=1;entryDx=0;entryDy=0;" parent="1" source="9MHZOHHS-NlQLNRWX2LN-18" target="9MHZOHHS-NlQLNRWX2LN-16" edge="1">
          <mxGeometry width="50" height="50" relative="1" as="geometry">
            <mxPoint x="469" y="360" as="sourcePoint" />
            <mxPoint x="460" y="200" as="targetPoint" />
          </mxGeometry>
        </mxCell>
        <mxCell id="9MHZOHHS-NlQLNRWX2LN-18" value="i = 1; length" style="strokeWidth=2;html=1;shape=mxgraph.flowchart.loop_limit;whiteSpace=wrap;" parent="1" vertex="1">
          <mxGeometry x="364" y="180" width="100" height="20" as="geometry" />
        </mxCell>
        <mxCell id="9MHZOHHS-NlQLNRWX2LN-19" value="i++" style="strokeWidth=2;html=1;shape=mxgraph.flowchart.loop_limit;whiteSpace=wrap;direction=west;" parent="1" vertex="1">
          <mxGeometry x="364" y="240" width="100" height="20" as="geometry" />
        </mxCell>
        <mxCell id="9MHZOHHS-NlQLNRWX2LN-20" value="Table.Rows[0].Cells[i].Value = $&quot;[{i - 1}]&quot;" style="rounded=0;whiteSpace=wrap;html=1;" parent="1" vertex="1">
          <mxGeometry x="301" y="210" width="226" height="20" as="geometry" />
        </mxCell>
        <mxCell id="9MHZOHHS-NlQLNRWX2LN-21" value="" style="endArrow=none;html=1;rounded=0;entryX=0.5;entryY=1;entryDx=0;entryDy=0;entryPerimeter=0;exitX=0.5;exitY=0;exitDx=0;exitDy=0;" parent="1" source="9MHZOHHS-NlQLNRWX2LN-20" target="9MHZOHHS-NlQLNRWX2LN-18" edge="1">
          <mxGeometry width="50" height="50" relative="1" as="geometry">
            <mxPoint x="489" y="490" as="sourcePoint" />
            <mxPoint x="539" y="440" as="targetPoint" />
          </mxGeometry>
        </mxCell>
        <mxCell id="9MHZOHHS-NlQLNRWX2LN-22" value="" style="endArrow=none;html=1;rounded=0;entryX=0.5;entryY=1;entryDx=0;entryDy=0;exitX=0.5;exitY=1;exitDx=0;exitDy=0;exitPerimeter=0;" parent="1" source="9MHZOHHS-NlQLNRWX2LN-19" target="9MHZOHHS-NlQLNRWX2LN-20" edge="1">
          <mxGeometry width="50" height="50" relative="1" as="geometry">
            <mxPoint x="489" y="490" as="sourcePoint" />
            <mxPoint x="539" y="440" as="targetPoint" />
          </mxGeometry>
        </mxCell>
        <mxCell id="9MHZOHHS-NlQLNRWX2LN-31" value="" style="endArrow=none;html=1;rounded=0;exitX=0.5;exitY=0;exitDx=0;exitDy=0;exitPerimeter=0;entryX=0.5;entryY=0;entryDx=0;entryDy=0;entryPerimeter=0;" parent="1" source="9MHZOHHS-NlQLNRWX2LN-32" target="9MHZOHHS-NlQLNRWX2LN-19" edge="1">
          <mxGeometry width="50" height="50" relative="1" as="geometry">
            <mxPoint x="459" y="480" as="sourcePoint" />
            <mxPoint x="450" y="320" as="targetPoint" />
          </mxGeometry>
        </mxCell>
        <mxCell id="9MHZOHHS-NlQLNRWX2LN-32" value="i = 1; length" style="strokeWidth=2;html=1;shape=mxgraph.flowchart.loop_limit;whiteSpace=wrap;" parent="1" vertex="1">
          <mxGeometry x="364" y="270" width="100" height="20" as="geometry" />
        </mxCell>
        <mxCell id="9MHZOHHS-NlQLNRWX2LN-33" value="i++" style="strokeWidth=2;html=1;shape=mxgraph.flowchart.loop_limit;whiteSpace=wrap;direction=west;" parent="1" vertex="1">
          <mxGeometry x="364" y="330" width="100" height="20" as="geometry" />
        </mxCell>
        <mxCell id="9MHZOHHS-NlQLNRWX2LN-34" value="Table.Rows[i].Cells[0].Value = $&quot;[{i - 1}]&quot;" style="rounded=0;whiteSpace=wrap;html=1;" parent="1" vertex="1">
          <mxGeometry x="301" y="300" width="226" height="20" as="geometry" />
        </mxCell>
        <mxCell id="9MHZOHHS-NlQLNRWX2LN-35" value="" style="endArrow=none;html=1;rounded=0;entryX=0.5;entryY=1;entryDx=0;entryDy=0;entryPerimeter=0;exitX=0.5;exitY=0;exitDx=0;exitDy=0;" parent="1" source="9MHZOHHS-NlQLNRWX2LN-34" target="9MHZOHHS-NlQLNRWX2LN-32" edge="1">
          <mxGeometry width="50" height="50" relative="1" as="geometry">
            <mxPoint x="440" y="530" as="sourcePoint" />
            <mxPoint x="490" y="480" as="targetPoint" />
          </mxGeometry>
        </mxCell>
        <mxCell id="9MHZOHHS-NlQLNRWX2LN-36" value="" style="endArrow=none;html=1;rounded=0;entryX=0.5;entryY=1;entryDx=0;entryDy=0;exitX=0.5;exitY=1;exitDx=0;exitDy=0;exitPerimeter=0;" parent="1" source="9MHZOHHS-NlQLNRWX2LN-33" target="9MHZOHHS-NlQLNRWX2LN-34" edge="1">
          <mxGeometry width="50" height="50" relative="1" as="geometry">
            <mxPoint x="440" y="530" as="sourcePoint" />
            <mxPoint x="490" y="480" as="targetPoint" />
          </mxGeometry>
        </mxCell>
        <mxCell id="9MHZOHHS-NlQLNRWX2LN-38" value="Конец" style="rounded=1;whiteSpace=wrap;html=1;arcSize=50;" parent="1" vertex="1">
          <mxGeometry x="354" y="360" width="120" height="20" as="geometry" />
        </mxCell>
        <mxCell id="9MHZOHHS-NlQLNRWX2LN-39" value="" style="endArrow=none;html=1;rounded=0;entryX=0.5;entryY=0;entryDx=0;entryDy=0;exitX=0.5;exitY=0;exitDx=0;exitDy=0;exitPerimeter=0;" parent="1" source="9MHZOHHS-NlQLNRWX2LN-33" target="9MHZOHHS-NlQLNRWX2LN-38" edge="1">
          <mxGeometry width="50" height="50" relative="1" as="geometry">
            <mxPoint x="534" y="400" as="sourcePoint" />
            <mxPoint x="564" y="440" as="targetPoint" />
          </mxGeometry>
        </mxCell>
      </root>
    </mxGraphModel>
  </diagram>
</mxfile>
